<?xml version="1.0" standalone="no"?>
<!DOCTYPE svg PUBLIC "-//W3C//DTD SVG 20010904//EN"
 "http://www.w3.org/TR/2001/REC-SVG-20010904/DTD/svg10.dtd">
<svg version="1.0" xmlns="http://www.w3.org/2000/svg"
 width="256.000000pt" height="256.000000pt" viewBox="0 0 256.000000 256.000000"
 preserveAspectRatio="xMidYMid meet">

<g transform="translate(0.000000,256.000000) scale(0.100000,-0.100000)"
fill="#000000" stroke="none">
<path d="M1132 2278 c-16 -16 -16 -90 0 -106 7 -7 20 -12 30 -12 11 0 18 -7
18 -18 0 -15 -19 -25 -81 -45 -95 -32 -148 -66 -217 -141 -132 -145 -168 -338
-92 -494 25 -50 57 -91 127 -160 51 -51 93 -98 93 -106 0 -7 -18 -26 -40 -41
-70 -48 -139 -131 -178 -212 -33 -71 -37 -86 -36 -158 1 -86 21 -148 70 -212
l25 -33 -35 -44 c-20 -23 -33 -46 -29 -49 11 -12 933 -8 933 3 0 5 -16 27 -35
49 l-35 39 34 50 c124 185 68 394 -154 574 l-45 37 96 93 c127 124 161 190
167 322 5 109 -17 187 -80 281 -44 67 -42 88 9 93 20 2 35 12 47 33 17 29 17
31 -1 51 -10 12 -38 34 -62 49 -34 22 -48 26 -63 18 -29 -16 -44 -55 -28 -74
11 -13 11 -19 -3 -32 -15 -15 -18 -15 -34 -1 -30 26 -105 61 -158 73 -39 9
-51 16 -53 33 -3 18 2 22 22 22 30 0 46 25 46 74 0 25 -6 38 -19 46 -28 14
-224 13 -239 -2z m213 -263 c33 -9 80 -25 104 -37 62 -30 145 -119 183 -196
29 -59 33 -76 33 -147 -1 -120 -29 -171 -178 -316 -83 -81 -118 -121 -115
-134 1 -11 29 -37 61 -59 119 -81 221 -216 233 -308 14 -103 -49 -218 -144
-265 -57 -28 -57 -28 -267 -28 -242 0 -278 8 -340 77 -141 155 -77 369 157
524 37 25 68 53 68 61 0 9 -19 34 -43 57 -24 22 -78 75 -122 116 -145 138
-175 272 -96 435 56 114 129 177 249 216 71 22 140 24 217 4z"/>
<path d="M1242 1928 c2 -24 8 -43 13 -43 6 0 11 19 13 43 3 33 0 42 -13 42
-13 0 -16 -9 -13 -42z"/>
<path d="M1449 1844 c-62 -67 -181 -164 -202 -164 -12 0 -48 21 -80 46 -56 44
-87 51 -87 21 0 -8 23 -35 50 -61 28 -26 50 -56 50 -67 0 -25 43 -69 68 -69
28 0 72 38 72 63 0 14 36 57 101 123 71 71 100 107 96 118 -9 24 -41 19 -68
-10z"/>
<path d="M903 1633 c-7 -2 -13 -11 -13 -19 0 -17 85 -20 95 -4 11 18 -53 35
-82 23z"/>
<path d="M960 1451 c0 -10 80 -85 189 -176 46 -39 88 -81 93 -95 9 -24 10 -24
20 -5 18 34 59 74 161 158 87 71 117 102 117 121 0 3 -130 6 -290 6 -159 0
-290 -4 -290 -9z"/>
<path d="M1163 1089 c-15 -5 -23 -17 -23 -32 0 -35 -30 -58 -66 -51 -25 5 -32
1 -44 -20 -10 -20 -11 -29 -2 -38 19 -19 15 -66 -7 -73 -11 -3 -24 -11 -30
-18 -14 -18 -3 -55 20 -62 30 -10 43 -43 28 -72 -18 -34 -1 -58 42 -58 45 -1
57 -10 67 -48 10 -40 45 -48 73 -18 25 27 54 27 73 -1 13 -19 20 -20 43 -12
19 6 29 18 31 34 6 37 22 52 54 48 42 -7 65 22 48 61 -15 38 -6 67 25 75 35 9
36 63 1 72 -33 8 -47 43 -30 75 11 22 11 29 -2 47 -11 17 -21 20 -44 15 -36
-7 -60 10 -60 43 0 17 -8 28 -27 35 -23 9 -30 7 -44 -10 -21 -26 -56 -27 -83
-2 -16 14 -27 17 -43 10z m157 -122 c138 -73 86 -277 -71 -277 -56 0 -104 29
-130 80 -52 97 21 214 137 219 11 1 40 -9 64 -22z"/>
</g>
</svg>
